General
Complete name                    : The.Fifth.Element.avi
Format                           : AVI
File size                        : 1.37 GiB
Duration                         : 2h 1mn
Overall bit rate                 : 1 618 Kbps

Video

Format                           : MPEG-4 Visual
Codec ID/Hint                    : XviD
Duration                         : 2h 1mn
Bit rate                         : 1 159 Kbps
Width                            : 704 pixels
Height                           : 500 pixels
Display aspect ratio             : 2.048
Stream size                      : 1 005 MiB (72%)
Writing library                  : XviD 1.1.2 (UTC 2006-11-01)

Audio

Format                           : AC-3
Duration                         : 2h 1mn
Bit rate                         : 448 Kbps
Channel(s)                       : 6 channels
Channel positions                : Front: L C R, Side: L R, LFE
Sampling rate                    : 48.0 KHz
Stream size                      : 389 MiB (28%)
 
http://www.imdb.com/media/rm2761858304/tt0119116